<mxfile host="app.diagrams.net" modified="2023-12-17T06:29:50.147Z" agent="Mozilla/5.0 (Windows NT 10.0; Win64; x64) AppleWebKit/537.36 (KHTML, like Gecko) Chrome/120.0.0.0 Safari/537.36" etag="93z4HoBimYFFH_zPtJjq" version="22.1.11" type="github">
  <diagram name="第 1 页" id="AN6ldcmXwKZ_Ya7eOYBY">
    <mxGraphModel dx="478" dy="249" grid="1" gridSize="10" guides="1" tooltips="1" connect="1" arrows="1" fold="1" page="1" pageScale="1" pageWidth="827" pageHeight="1169" math="0" shadow="0">
      <root>
        <mxCell id="0" />
        <mxCell id="1" parent="0" />
        <mxCell id="nrm_QGzcfDuFEVkFxr-K-1" value="&lt;font face=&quot;ZCOOL KuaiLe&quot; data-font-src=&quot;https://fonts.googleapis.com/css?family=+ZCOOL+KuaiLe&quot;&gt;监控引用&lt;/font&gt;" style="rounded=0;whiteSpace=wrap;html=1;sketch=1;curveFitting=1;jiggle=2;" vertex="1" parent="1">
          <mxGeometry x="80" y="150" width="90" height="50" as="geometry" />
        </mxCell>
      </root>
    </mxGraphModel>
  </diagram>
</mxfile>
